<?xml version="1.0" encoding="UTF-8"?><svg xmlns="http://www.w3.org/2000/svg" viewBox="0 0 59.06 358.52"><defs><style>.d{opacity:.8;}</style></defs><g id="a"/><g id="b"><g id="c"><g class="d"><path d="M32.72,23.12c.25-.11-.47-.65-.51-.87-.4-.18-.33-.87-.72-1.05-2.1-3.36-2.89-9.51-1.56-14.07,.36-1.16,1.01-2.17,1.05-3.29,.62-.61,.94-1.48,1.38-2.24,.47-.33,.83-.69,1.23-1.05,.76-.47,1.81-.62,3.11-.51,.72,.58,1.08,1.48,1.41,2.42-.29,.43-.04,1.48-.36,1.92-.04,.61,0,1.34-.69,1.37-.83-.14-.43-.83-.36-1.37,.11-.58,.43-1.09,.36-1.59,.14-.58-.65-.29-.69-.69-.29-.18-.36-.54-.87-.51-1.7,.25-2.1,1.84-2.97,2.93,0,1.05-.51,1.59-.69,2.46-.25,.36-.22,.76-.36,1.19,0,.04-.14,.07-.14,.18-.18,.65-.33,1.92-.36,2.97,0,.25-.04,.58,0,.87,.11,.65,0,1.7,0,2.93,.14,.8,.54,1.34,.51,2.28,.8,1.45,1.52,3,2.46,4.34,.47,.43,1.01,.8,1.38,1.37,.58,0,.9,.25,1.23,.51,1.37,.29,2.75,.14,3.98-.15,.54-.47,1.23-.72,1.74-1.23,.72-.25,.98-1.01,1.74-1.23,.4-.94,1.01-1.63,1.74-2.24-.04-.43-.04-.83,.18-1.05,.4-.33,.65-.83,1.19-1.05v-1.19c.58-.43,.65-1.34,1.23-1.74-.22-.65,.18-.98,.36-1.41,.29-.8,.54-1.37,.87-2.24,.11-.36,.18-.83,.33-1.23,.04-.11,.33-.4,.36-.51,.18-.47,.29-1.23,.51-1.92,.04-.07,.33-.43,.36-.51,.11-.43,0-.62,.18-1.05,.04-.18,.22-.4,.33-.69,.83-.14,1.23,.15,1.74,.33,.25,1.95,1.05,3.4,1.23,5.39,.83,1.34,.51,3.91,1.19,5.39,.11,1.63,.25,3.22,.72,4.52-.18,.87,.15,1.81,.15,2.79,.04,.36-.15,.62-.15,1.01-.04,.76,.18,1.56,.15,2.28,0,.4-.07,1.01-.15,1.56-.07,.43-.11,1.05-.18,1.37-.04,.11-.33,.29-.36,.36-.04,.14,.07,.4,0,.51-.18,.36-1.01,.8-1.38,1.23-.54-.07-.62,.33-1.23,.18-.4,0-.51-.33-1.05-.18,.04-.43-.47-.47-.69-.69-.11-.15-.07-.4-.18-.54-.07-.11-.22-.18-.33-.33-.4-.51-.72-1.01-1.05-1.56-.25-.25-.33-1.23,.18-1.23,.58-.11,.62,.29,.69,.69,.22,.25,.69,.25,.69,.69,.36,.14,.47,.47,.54,.87,.54-.07,.43,.47,.87,.54,1.38-.4,1.34-2.24,2.06-3.29,.11-.4-.33-.25-.33-.54,.22-.04,.14-.43,.14-.69,.33-2.24-.18-5.21-.51-7.63-.29-1.99-.65-3.87-.87-5.75-.4-1.23-.83-2.42-1.05-3.8-.43,0-.25,.58-.51,.87-.15,.14-.4,1.08-.54,1.56-.69,1.05-1.01,2.28-1.56,3.47-.47,1.08-1.12,2.21-1.38,3.47-.54,.18-.65,.83-.87,1.23-.04,.07-.33,.11-.36,.14-.07,.15,.07,.4,0,.54-.04,.07-.33,.11-.33,.18-.36,.72-1.05,1.74-1.74,2.42-.33,.54-.94,.83-1.05,1.56-1.12,0-1.05,1.16-2.28,1.05-.18,.07-.33,.22-.33,.51-.29,0-.47,.15-.54,.36-1.23,.04-2.53,.47-3.8,.33-.72-.07-1.56-.4-2.28-.69-1.01,0-1.52-.76-2.24-1.56Z"/><path d="M40.5,31.18c.07,.14,.47,.47,.69,.87,.14,1.05,.9,1.48,1.19,2.42,.43,.58,1.08,.9,1.59,1.41,.14,.98,.69,1.59,.69,2.75-.43,.58-.9,1.81-1.92,1.77-.62,.29-1.3,.33-1.88,.43-.07,.04-.14,.22-.07,.51,.11,.51-.04,.04,.14,.54,.25,.62,.11,1.48,.07,1.48-.29,.04-1.38-.69-1.52-.87-.04-.07-.07-.22-.18-.51-.22-.58-.04-.22-.25-.76-.22-.58-.29-.65-.33-.65-1.41-.43-2.06-1.38-3.11-2.1-.22-.22-.72-1.12-1.05-1.01-.07-.43-.4-.29-.87-.72-1.01-1.23-1.88-2.6-2.61-4.16-.25-1.23-.07-2.97,.18-3.83,.76-.47,2.1-.36,3.29-.36,.4,.18,.87,.33,1.23,.54,.14,.07,.22,.43,.36,.51,.22,.14,.47,.07,.69,.18,.76,.43,1.59,.58,2.17,1.19,.4,.14,.98,.29,1.48,.36Zm-2.1,1.92c-.04-.43-.43-.51-.69-.69-.9-.72-2.03-1.23-2.79-1.92-.76,0-1.01-.51-1.92-.36v1.77c.04,.36,.76,1.63,.87,1.74,.14,.14,.07,.14,.18,.36,.33,.54,.94,.87,1.05,1.56,.4,.33,.83,.65,1.19,1.05,.4,.36,.76,.72,1.05,1.19,.43,.25,.43,.54,1.01,.54-.36-.58-.43-1.74-.47-2.46,.22-.25,.14-.76,.14-1.23,.29-.47,.72-.8,.87-1.38-.22-.04-.22-.25-.51-.18Zm3.47,4.34c-.43-.22-.58-.72-.69-1.23-.36-.11-.87-.98-1.23-.51,.29,.04,0,.25-.33,.18-.07,1.05,.15,2.5,.51,3.15,.69-.07,1.66,.14,2.1-.18,0-.22,.22-.98,.14-1.23-.22-.04-.22-.25-.51-.18Z"/><path d="M41.44,70.33c0,.07-2.39-2.13-2.39-2.17-.22-.51-3.04-6.51-3.26-6.58-.11-.61-.43-1.12-.87-1.56-.47-.94-1.16-2.17-1.84-3.22-.07-.36-.22-.69-.36-1.01-.43-.07-.15-.98-.54-1.09v-1.23c0-.65,0-1.3,.18-1.92,.87-.87,2.06-1.34,3.11-1.92-.94-.87-5.14-3.55-5.39-4.34-.54,.14-.69-.36-1.19-.33-.54-.98-4.88-3.47-6.08-4.34-.07-.22-.29-.4-.54-.36-.72-.47-1.3-1.12-2.06-1.56-1.63-.98-8-4.78-8-6.8v-.14c.65-.58,2.28-.33,3.11-.36,.94,.33,1.81,.76,2.79,.9,.25,.4,1.01,.07,1.23,.51,.4,0,.65,.36,1.05,.36l.33-.04c.11,.47,.8,.4,.87,.87,.51-.07,2.89,1.16,3.11,1.59,1.12-.43,7.13,4.85,8.54,5.35,.18,.33,3,3.11,3.11,3.15,.76,.62,4.63,4.78,4.7,5.54,.98,.33,4.7,6.73,4.7,8,0,1.16-.8,1.7-1.59,2.42-.22-.11-.51,.04-.69,.18h-.14c-.43,0-.83-.18-1.27-.18l-.33,.18h-.36c-1.3,0-2.57-.25-3.8-.51-.07,.07-.11,.18-.11,.25,0,.8,3.51,8.07,4.05,9.15l-.07,1.19Zm-2.68-21.89c-.29-.36-.69-.54-.69-1.05-.83-.22-1.05-1.12-1.74-1.56-.4-.76-1.3-1.01-1.74-1.74-.04-.47-.72-.33-.87-.69-.47-.11-.47-.72-1.05-.72-.07-.61-1.52-1.05-1.74-1.74-.07-.04-3.69-2.53-3.98-2.75-.9-.25-1.27-1.16-2.28-1.23-.58-.65-1.48-.72-2.06-1.38h-.87c-.36-.54-1.08-.65-1.56-1.05-.83,.07-1.34-.29-2.1-.54-.54,.18-.51-.22-.87-.33-.04-.07-.07-.18-.14-.18-.25,0-.43,.25-.65,.25-.11,0-.18-.04-.25-.07,.14,.62,.72,.83,1.23,1.05,.33,.51,.8,.87,1.37,1.01,.51,.76,1.56,.9,2.1,1.59h.33c.47,.25,1.12,.72,1.59,1.01l.14,.36c.22,.14,.76-.11,.72,.36,1.08,.65,2.03,1.56,3.11,2.24,.33-.04,.58,.22,.69,.51,.33,.22,.72,.14,1.05,.36v.36h.36c1.59,1.34,3.98,2.32,5.21,3.98,.69,.04,.94,.72,1.56,.87,.62,.43,2.46,1.77,3.18,1.77,.11,0,.15-.04,.11-.22-.11-.15-.18-.33-.18-.51Zm5.21,8.14c-.22-.04-.33-.25-.51-.33,.11-.87-.72-1.08-.69-1.92-.54-.33-1.05-.8-1.41-1.34-.9-.14-2.64-1.19-3.47-1.7-.36-.29-.69-.54-1.19-.62-.54,.83-1.99,1.09-1.99,2.35,0,.94,.62,1.99,.62,3.08,.4-.04,.58,.62,.69,.9,1.34,1.05,3.76,1.59,5.43,1.59,.76,0,1.52-.11,2.21-.43,.18-.47,.33-.9,.33-1.41v-.18Z"/><path d="M43.65,77.02c-.4-1.56-1.95-1.99-2.24-3.65-.72-.36-2.24-1.92-2.28-1.92-.11-.14-.11-.43-.33-.69-.47-.51-1.05-.94-1.41-1.56-.8-.47-1.09-1.45-2.24-1.56-.29-1.05-1.34-1.48-2.1-2.1-.33-.25-.69-.87-1.05-.87-.25,0-1.19-1.01-1.19-1.09,0-.58-.54-.62-.54-1.23,0-.33,.72-.47,1.09-.47,1.23,0,1.92,1.23,2.93,1.74,.9,.72,2.75,1.34,2.79,1.92,.4,.07,.72,.18,.87,.54,1.77,1.27,3.62,2.5,5.21,3.98,.29,.69,1.27,.69,1.56,1.37,1.27,1.09,2.5,2.03,4.16,3.47,.15,.15,.22,.43,.36,.54,.14,.11,.36,.04,.51,.14,.51,.47,.9,1.12,1.37,1.59,.54,.51,1.19,.87,1.74,1.38,1.45,1.34,2.86,3,4.2,4.7-.11,.14-.14,.25-.14,.36,0,.22,.11,.43,.11,.61,0,.15-.04,.4-.29,.4-.76,0-.91-.61-1.41-.87-.4-.9-1.81-.69-1.92-2.24-.69-.47-2.21-2.17-2.35-2.17,0-.04,.04-.11,.04-.15,0-.07-.04-.33-.22-.33-.07,0-.18,.04-.22,.04s-2.46-2.06-2.46-2.57c0-.15-.43-.15-.54-.22-.11-.11-.25-.54-.36-.54-.07,0-.18,.04-.25,.04-.18,0-.22-.9-.8-.9-.07,0-.11,.04-.14,.04-.14-.51-.54-.76-1.05-.9-.14-.98-1.34-.94-1.56-1.88-.94-.04-2.39-1.34-2.42-1.56-.14-.33-.25-.54-.69-.54-.04,.07-.07,.18-.07,.22s1.38,2.03,2.5,2.75c-.04,.07-.04,.11-.04,.18,0,.51,.87,.69,.9,1.19,.04,.51,.9,.94,1.05,1.56,.54,1.01,1.45,1.7,1.74,2.97-.4,.25-.69,.58-1.05,.87-.8-.04-1.23-.69-1.7-.69-.62,0-2.13-1.45-2.28-1.59-.22-.14-.87-.8-1.74-1.01-.4-.8-1.74-.94-2.61-1.92-.98-.54-1.92-1.12-2.79-1.74-.07-.04-.15-.07-.18-.07-.22,0-.36,.22-.43,.22-.04,0-.07-.04-.07-.15-.15-.18-.33-.25-.54-.36-.47,.25-.58,.72-.58,1.16,0,.51,.14,.94,.14,1.52,.25,.22,.43,1.23,.8,1.95,.25,.83,1.05,1.52,1.45,2.46,.25,.58,.65,1.12,1.23,1.7,.33,.25,1.23,1.45,1.23,1.85,0,.29-.33,.69-.8,.69-1.05,0-1.81-1.48-2.46-2.24-.29-.22-.87-1.09-1.12-1.7-.87-2.06-2.21-4.31-2.21-6.84,0-1.12,.29-2.32,1.45-2.32,.76,0,1.19,.22,2.1,.22,.11,.51,.98,.29,1.05,.87,.04-.04,.11-.04,.14-.04,.65,0,1.16,.8,1.59,1.09,.58,.36,.83,0,1.74,1.05,.94,.25,1.38,1.05,2.24,1.38,.69,.61,2.21,1.92,2.61,1.92Z"/><path d="M33.33,89.1c.25-.07-.29-1.19-.51-1.23-.47-.87-.65-2.03-1.05-2.97-.4-.18-.07-.51-.18-.87-.04-.07-.33-.43-.36-.51-.15-.9,.04-1.84-.15-2.6,.47-.11,.43-.72,1.01-.69,.65-.14,1.27-.04,1.59,.11,.69,.33,2.17,1.23,2.6,1.81,.94,1.12,3.15,2.39,4.02,3.58,.4,.11,.54,.51,.69,.87,.51,.04,.51,.54,.87,.69,.22,.33,.47,.58,.72,.87,.15,.33,.69,.22,.51,.87,.07,.72-.8,.47-1.05,.87-1.09-.18-1.27-1.27-2.24-1.56-.33-.9-1.41-1.09-1.92-1.77-.36-.9-2.13-1.74-2.64-2.53-.76-.43-1.01-1.41-2.1-1.56-.47,.72,.14,1.81,.54,2.28,.11,1.3,.69,2.32,1.19,3.29,.51,.94,.91,1.81,1.45,2.75,.29,.72,.8,.72,1.16,1.34,.22,.76,.87,1.48,.94,2.39-1.12,.4-2.21-.25-3.04-1.88-.36-.25-.54-.83-.87-1.12-.54-.47-.43-2.03-1.19-2.42Zm20.33,7.27c-.69,.36-1.63,.47-2.61,.54-.61-.47-.29-1.7,0-2.28,1.48-.04,2.93-.04,2.61,1.74Z"/><path d="M33.33,89.28c.69,0,1.7,0,1.7-.07,.4,1.45,2.17,3.15,2.82,4.38,.98,1.52,2.82,3.58,3.65,5.21,.51,.87,1.12,1.63,1.63,2.46,.43,.72,1.08,1.45,1.19,2.42-.29,.18-.58,.43-.87,.69-.61,.18-1.12-.29-1.56-.51-.69-.36-1.3-.8-1.95-1.23-.07-.04-.29,.07-.33,0-.29-.33-3.29-1.95-3.98-2.13-.43-.47-.8-1.05-1.56-1.19-.51,.4,.25,1.01,0,1.74,.36,1.52,.8,3.15,1.19,4.67,.8,1.74,1.59,3.58,2.53,5.17-.76,0-1.7,.14-1.48-.11-.14-.4-.76-.94-.9-1.3-.04-.11-.33-.43-.33-.54-.07-.22-.07-.33-.18-.51-.25-.58-.65-.83-.9-1.3-.11-.18-.14-.36-.18-.54-.14-.36-.36-.8-.47-1.19-.11-.4-.22-.51-.36-1.05-.11-.47-.4-1.74-.83-2.42-.22-1.95-1.23-4.09-1.01-6.26,.04-.69,.47-1.34,.51-2.1,.47-.47,.98-.98,1.23-1.74,.47-.18,1.01-.18,1.48,0,.14-.54-.25-.54-.33-.87-.25-.11-.04-.65-.36-.69-.25-.43-.51-.98-.36-.98Zm1.63,8.1c.47,.54,2.53,2.17,3.4,2.28,.18,.47,1.41,.62,1.59,1.05,.4-.04,.65,.04,.69,.36,.22-.04,.43-.07,.36-.36-.25-.04-.29-.29-.51-.33-.33-1.27-1.67-1.45-1.95-2.75-.76-.83-2.86-3.58-3.47-4.59-.72,.87-1.67,1.41-1.48,2.93,.25,.69,.72,1.12,1.37,1.41Z"/><path d="M33.88,122.27c-.4-.87-.87-1.27-1.16-1.85-.18-.36-.72-.98-.91-1.56,0-.11-.25-.65-.33-.76-.07-.22-.22-.25-.33-.69-.07-.22-.29-.87-.36-1.19-.14-.54,.11,.04-.07-.72-.07-.36-.14-.69-.36-1.05,.33-.76,.15-2.06,.18-3.11,.36-.22,.4-.76,.54-1.23,.72-.43,1.38-1.38,2.61-1.56,.9-.15,1.81,.11,2.75,.36,.91,.43,2.5,.69,2.97,1.19,1.41,.87,3.11,1.45,4.34,2.46,.29-.25,.25-.87,.18-1.41-.07-.4-.25-1.27-.36-2.06-.11-1.12-.65-2.6,.54-2.97,.69-.07,.36,.9,.69,1.23,.29,.33,.14,1.12,.51,1.38,.11,1.81,.36,3.47,.54,5.21,.04,.29,.33,.54,.51,.69,.14,.11,.36,.07,.51,.18,.33,.25,.9,1.01,1.41,1.37,.87,.72,1.84,1.27,2.79,1.92,.43,.62,1.52,.54,1.38,1.74,0,.72-1.23,.14-1.56,.54-1.7-.87-2.71-2.39-4.7-2.97-.36,.07-.07,.87-.18,1.23,.36,4.02,.54,8.28,.87,12.3-.22,.43-.51,1.05-1.05,.61-.07-.9-.18-1.66-.15-1.63,.04-1.01-.29-1.66-.18-2.79-.43-.76-.14-1.45-.51-2.42-.04-.69,0-1.3,.15-1.74-.54-1.19,.04-1.27-.33-2.46q-.14-.51,0-1.01c-.14-.33-.29-.65-.36-1.05-.07-.43,.72-1.3,0-1.92-.36,.04-.07-.61-.18-.87-1.01-.4-1.52-1.34-2.6-1.74-.62-.87-1.66-.8-2.24-1.74-.47,.04-.69-.47-1.05-.69-.36-.25-.94-.25-1.19-.69-1.37-.22-2.5-.8-3.83-.18-.29,.4-.58,.65-.69,1.05-.04,.14-.14,.11-.18,.14-.54,1.16,0,2.75,.18,4.02,.15,.54,.29,1.41,.8,1.99,.04,.04,.51,.98,.51,1.01,.14,.29,.4,.51,.54,.83,.11,.29,.11,.76,.18,1.05,.4,.18,.29,.83,.36,1.34-.43,.54-.76-.15-1.16,.18Z"/><path d="M33.33,128.21c.25-.07-.29-1.19-.51-1.23-.47-.87-.65-2.03-1.05-2.97-.4-.18-.07-.51-.18-.87-.04-.07-.33-.43-.36-.51-.15-.9,.04-1.84-.15-2.6,.47-.11,.43-.72,1.01-.69,.65-.14,1.27-.04,1.59,.11,.69,.33,2.17,1.23,2.6,1.81,.94,1.12,3.15,2.39,4.02,3.58,.4,.11,.54,.51,.69,.87,.51,.04,.51,.54,.87,.69,.22,.33,.47,.58,.72,.87,.15,.33,.69,.22,.51,.87,.07,.72-.8,.47-1.05,.87-1.09-.18-1.27-1.27-2.24-1.56-.33-.9-1.41-1.09-1.92-1.77-.36-.9-2.13-1.74-2.64-2.53-.76-.43-1.01-1.41-2.1-1.56-.47,.72,.14,1.81,.54,2.28,.11,1.3,.69,2.32,1.19,3.29,.51,.94,.91,1.81,1.45,2.75,.29,.72,.8,.72,1.16,1.34,.22,.76,.87,1.48,.94,2.39-1.12,.4-2.21-.25-3.04-1.88-.36-.25-.54-.83-.87-1.12-.54-.47-.43-2.03-1.19-2.42Zm20.33,7.27c-.69,.36-1.63,.47-2.61,.54-.61-.47-.29-1.7,0-2.28,1.48-.04,2.93-.04,2.61,1.74Z"/><path d="M36.48,152.05c-.83-.25-2.13-2.17-2.32-3.04-.29-.51-.61-1.12-.87-1.66-.04-.07-.4-.29-.4-.33-.11-.36-.14-.94-.65-1.05,.22-.72-.36-.69-.33-1.23-.4-.58-.47-1.48-.98-1.99-.11-.29,.22-1.01-.18-1.01-.29-.11,.04-.83-.33-.87,.07-1.3-.18-2.21-.47-3.15,.04-1.45-.07-2.97,.18-4.16,.4-.54,.87-.98,1.05-1.74,.51-.11,1.05-.22,1.23-.69,1.16,.04,1.01-.22,2.24-.11,.72,.07,1.74,.69,2.46,.83,1.05,.98,2.39,1.66,3.29,2.75,1.92,1.95,4.16,4.41,3.47,8.36-1.16,.8-2.79,1.12-4.34,1.56,.04-.36-.61-.07-.87-.18-.43-.47-1.41-1.34-.51-2.42,.29,.04,.58-.07,.87,0,.58,.11,.94,.76,1.92,.69,.36,0,.58-.18,1.01-.33,.54-.8,.69-1.66,.18-2.6q-.36,.18-.18-.18c.18-.36-.29-.25-.33-.36-.07-.11,.04-.36,0-.51-.14-.22-.51-.43-.36-.87-.25-.11-.33-.47-.51-.69-.14-.15-.83-.11-.54-.69-.58,0-.76-.4-1.05-.72-.87-.18-.9-1.23-1.88-1.38-.11-.43-.43-.61-.69-.87-1.41-.36-1.59-1.23-3.33-.72-.98,.36-1.37,1.3-1.74,2.24,.11,1.92,.04,4.02,.69,5.39,.22,.54,.25,1.27,.51,1.74,.29,1.23,1.23,2.06,1.52,3.29,.54,.98,1.08,2.06,1.48,3.15,.51,.98,1.52,1.74,1.92,2.82,.36,.62,.36,1.19-1.19,.72Z"/><path d="M36.88,172.16c-.33-.62-1.23-1.3-1.52-1.88-.29-.62-.54-.47-.87-1.08-.33-.62-.8-1.09-1.12-1.7-.14-.33-.14-.72-.33-1.05-.22-.36-.4-.43-.36-.87-.61-.62-.43-1.74-1.16-2.24-.14-1.27-.07-2.13-.29-3.33,.36,0,.07-.72,.18-1.01,.43-.04,.25-.69,.69-.72,.04-.33,.76-.04,.69-.51,.07-.51-.43-.65-.51-1.05-.14-.47-.51-1.16-.87-1.74-.18-.25-.36-1.19-.72-1.74-.14-.25-.54-1.66-.51-2.24,0,.07,.36-.51,.18-.87,.76-.83,1.92-1.27,3.47-.87,.47,.43,1.16,.69,1.92,.87,.47,.54,1.19,.87,1.74,1.38,1.08,.87,1.92,2.03,2.93,2.97,.4,.61,.8,1.19,1.41,1.56,.04,.9,.69,1.16,1.01,1.74,.33,.69,.43,1.56,1.05,1.92,.22,1.59,1.01,2.61,1.23,4.16-.25,1.27-1.52,1.81-2.97,1.38-.33-.29-.72-.51-.87-1.01-.36,.07-.25-.36-.51-.36-.25-.04-.14-.43-.18-.69,.9-.65,1.3,.47,2.1,.51,.43-.87-.36-1.48-.18-2.61-.36-.51-.43-1.19-.69-1.74-.29-.51-.76-.8-.87-1.38-.58-.98-1.52-1.63-1.92-2.79-.69-.47-1.3-1.01-1.92-1.56-.14-.43-.62-.54-.87-.87-.25-.33-.8-.36-.87-.87-1.12-.29-1.81-.94-3.11-1.05-.62,1.05,.29,1.99,.33,2.97,.33,0,.22,.29,.36,.51,.11,.22,.22,.33,.33,.51,.18,.33,.18,1.09,.72,1.05-.04,.43-.04,.83,.18,1.05,.04,.4,.58,.33,.51,.87,.72,.14,1.12,.62,1.92,.69,.4,.36,.65,.87,1.37,.87,.47,1.41,2.28,1.45,2.1,3.47-.18,.43-.76,.43-1.05,.69-1.09,.11-1.12-.83-2.1-.87-.29-.54-.87-.87-1.38-1.19-.18-.47-.54-.72-.87-1.05-.25-.25-.36-.94-1.05-.69-.62-.18-.18,.76-.51,.87,.14,.29,.07,.72,.14,1.05,.18,.58,.04,1.01,.33,1.56,.25,.54,.43,1.19,.69,1.74,.47,1.05,.9,2.06,1.37,3.11,.51,.43,.76,.94,1.05,1.45,.4,.72,.9,1.34,1.38,2.17,0,0-1.27,.43-1.23,.54Z"/><path d="M33.88,183.74c-.4-.87-.87-1.27-1.16-1.84-.18-.36-.72-.98-.91-1.56,0-.11-.25-.65-.33-.76-.07-.22-.22-.25-.33-.69-.07-.22-.29-.87-.36-1.19-.14-.54,.11,.04-.07-.72-.07-.36-.14-.69-.36-1.05,.33-.76,.15-2.06,.18-3.11,.36-.22,.4-.76,.54-1.23,.72-.43,1.38-1.38,2.61-1.56,.9-.15,1.81,.11,2.75,.36,.91,.43,2.5,.69,2.97,1.19,1.41,.87,3.11,1.45,4.34,2.46,.29-.25,.25-.87,.18-1.41-.07-.4-.25-1.27-.36-2.06-.11-1.12-.65-2.6,.54-2.97,.69-.07,.36,.91,.69,1.23,.29,.33,.14,1.12,.51,1.38,.11,1.81,.36,3.47,.54,5.21,.04,.29,.33,.54,.51,.69,.14,.11,.36,.07,.51,.18,.33,.25,.9,1.01,1.41,1.37,.87,.72,1.84,1.27,2.79,1.92,.43,.62,1.52,.54,1.38,1.74,0,.72-1.23,.14-1.56,.54-1.7-.87-2.71-2.39-4.7-2.97-.36,.07-.07,.87-.18,1.23,.36,4.02,.54,8.28,.87,12.3-.22,.43-.51,1.05-1.05,.61-.07-.9-.18-1.66-.15-1.63,.04-1.01-.29-1.66-.18-2.79-.43-.76-.14-1.45-.51-2.42-.04-.69,0-1.3,.15-1.74-.54-1.19,.04-1.27-.33-2.46q-.14-.51,0-1.01c-.14-.33-.29-.65-.36-1.05-.07-.43,.72-1.3,0-1.92-.36,.04-.07-.62-.18-.87-1.01-.4-1.52-1.34-2.6-1.74-.62-.87-1.66-.8-2.24-1.74-.47,.04-.69-.47-1.05-.69-.36-.25-.94-.25-1.19-.69-1.37-.22-2.5-.8-3.83-.18-.29,.4-.58,.65-.69,1.05-.04,.14-.14,.11-.18,.14-.54,1.16,0,2.75,.18,4.02,.15,.54,.29,1.41,.8,1.99,.04,.04,.51,.98,.51,1.01,.14,.29,.4,.51,.54,.83,.11,.29,.11,.76,.18,1.05,.4,.18,.29,.83,.36,1.34-.43,.54-.76-.14-1.16,.18Z"/><path d="M35.03,197.7c-.87-.54-3.73-5.35-3.91-8.07-.14-2.28,.4-4.38,1.34-5.75,.11-.83,1.09-1.12,1.74-1.05,.72-.14,1.63-.36,2.46-.14,0,0,.07,.14,.18,.14,.36,.11,2.1,.69,2.28,1.12,.51,.18,1.05,.36,1.23,.87,.98,.4,1.41,1.38,2.24,1.88,.43,.98,.87,1.92,1.59,2.6-.11,1.27,.54,1.77,.51,2.97-.4,.51-.87,.54-1.56,.51-.29,0-.22-.07-.36-.14-.25-.15-.87-.07-1.19-.36-1.41,0-2.97-1.34-4.23-1.45-.25-.51-1.01-.87-1.41-1.19-.4-.33-.54-.83-1.01-1.05-.29-.83-.94-1.27-1.23-2.1-.47,.54-.69,1.41-.83,1.92v.36c.11,1.92,1.3,4.78,2.42,6.29,.25,.33,.62,1.05,.76,1.37,.11,.33,.47,1.01,.47,1.38-.07,0-1.3,0-1.48-.11Zm7.24-8.21c-.58-1.05-1.66-1.63-2.1-2.6-1.19-.65-3.26-2.28-5.1-2.32-.04,.54,.25,1.19,.36,1.41,.25,.43,.4,.69,.69,1.05,.87,1.09,3.36,2.5,4.41,3.15,.51,.33,1.05,.72,1.74,.72,.11-.04,.33-.04,.33-.18-.33-.47-.18-.94-.33-1.23Z"/><path d="M38.18,225.74c-.58-.9-1.27-.94-1.67-1.66-.51-.65-.51-.54-.9-1.3-.69-.4-.69-1.16-1.16-1.81-.65-.9-1.48-2.46-1.45-2.53-.11-.43-.83-1.77-.98-1.95-.11-.8-.36-1.48-.54-2.32-.11-.43-.36-.47-.36-1.19-.51-.65-.58-2.21-.58-3.18s.07-1.63,1.45-1.63c1.63,0,2.75,.98,4.09,1.52,.11-.04,.14-.07,.14-.11,0-.18-.51-.51-.51-.65,0-.07-.43-.07-.43-.14,0-.29-.76-.51-.76-.98,0-.04,0-.11,.04-.14-.65-.43-.76-1.41-1.38-1.88-.33-.83-.83-1.52-1.23-2.28-.47-.65-.62-1.41-1.23-1.92-.22-1.05-.14-2.13-.54-3v-1.92c.54-.4,1.16-.9,1.66-.9,1.19,0,1.95,.43,3,.54,1.3,1.3,3.65,2.28,4.16,3.83,.65,.4,.9,1.19,1.59,1.56-.04,.07-.04,.14-.04,.22,0,.4,.4,.58,.54,.83,.18,.36,.11,.87,.51,1.05,.4,.9,.54,1.63,.87,2.24,.22,.4,.18,1.12,.54,1.41,.11,.8,.14,1.7,.33,2.42-.18,1.45-.58,2.79-1.19,3.8,2.03,1.88,4.38,3.58,6.66,5.21,1.3,.72,2.06,1.99,3.47,2.6,.54,.51,.9,1.19,1.74,1.41,.29,.18,.25,.69,.76,.69h.11c.04,.36,.51,.33,.51,.72v.14c.65,.25,1.19,.65,1.74,1.05,.65,.76,.94,1.84,1.92,2.24v.51c0,.33-.04,.58-.18,.72h-.11c-.18,0-.14,.18-.33,.18-1.3,0-1.41-1.16-2.86-1.23-.11-.4-.58-.47-.69-.87-1.05-.15-1.7-.8-2.42-1.23-.62-.4-1.81-.94-1.92-1.56-2.03-.4-2.89-1.95-4.52-2.79-.9-1.05-3.33-3.04-3.33-3.58,0-.07,0-.14,.04-.22-.83,0-.94-1.45-1.92-1.56-.65-1.23-2.71-2.03-2.71-2.93,0-.07,0-.14,.04-.22-.65-.51-1.45-.87-1.88-1.56-1.59-.11-2.13-1.23-3.65-1.37-.22,.11-.29,.36-.29,.61,0,.91,.62,1.23,.62,2.06v.25c.54,.91,.14,1.56,.58,2.42,.43,.9,.33,.87,.61,1.81,1.16,1.63,.83,1.12,1.59,2.71,.54,.8,.22,.76,.91,1.38,.33,1.05,.65,.87,.9,1.92,.62,.8,.98,1.52,1.66,2.1-.54,.43-.62,.04-1.01,.43Zm2.93-14.69c.33,0,.07-.83,.25-.83,.29,0,.25,.29,.25-.18v-.43c0-1.12-.22-2.03-.51-2.89,0-.04-.14-.04-.18-.14-.29-.9-.36-1.77-1.05-2.46-2.06-3.76-5.1-5.75-5.21-5.9-.72-.33-1.23-.87-2.32-.87-.43,0-.43,.22-.43,.47,0,.29,.11,.62,.11,.87,0,.14-.04,.29-.11,.4,.29,.58,.61,1.12,.69,1.92,.36,.54,.76,1.08,.87,1.92,1.48,1.81,2.21,4.38,3.98,5.9,0,.04-.04,.07-.04,.11,0,.51,.9,1.16,.72,1.16,.04,0,.11,0,.18-.04,.14,.58,1.38,2.06,1.95,2.06,.29,0,.83-.51,.83-1.05Zm11.18,12.52c-.33-.25-.72-.4-1.05-.69-.11-.11-.94-.98-.94-.87,0-.33-.98-.29-.98-.72v-.11s-.04-.07-.07-.07c-.54,0-1.19-.65-1.3-1.19-.83,0-1.01-.72-1.74-.87-.25-.25-.36-.65-.54-1.05-.11,.04-.18,.04-.25,.04-.43,0-.72-.76-1.27-.76-.07,0-.14,.07-.22,.22,.8,.83,1.66,1.85,2.46,2.42,.83,.62,2.35,2.28,2.46,2.28,.04,0,.15-.04,.22-.04,.11,0,.14,.33,.69,.33,.4,0,3.36,2.86,4.27,2.86,.07,0,.14,0,.18-.04-.69-.54-1.27-1.19-1.92-1.74Z"/><path d="M43.65,247.69c-.4-1.56-1.95-1.99-2.24-3.65-.72-.36-2.24-1.92-2.28-1.92-.11-.14-.11-.43-.33-.69-.47-.51-1.05-.94-1.41-1.56-.8-.47-1.09-1.45-2.24-1.56-.29-1.05-1.34-1.48-2.1-2.1-.33-.25-.69-.87-1.05-.87-.25,0-1.19-1.01-1.19-1.09,0-.58-.54-.62-.54-1.23,0-.33,.72-.47,1.09-.47,1.23,0,1.92,1.23,2.93,1.74,.9,.72,2.75,1.34,2.79,1.92,.4,.07,.72,.18,.87,.54,1.77,1.27,3.62,2.5,5.21,3.98,.29,.69,1.27,.69,1.56,1.37,1.27,1.09,2.5,2.03,4.16,3.47,.15,.14,.22,.43,.36,.54,.14,.11,.36,.04,.51,.14,.51,.47,.9,1.12,1.37,1.59,.54,.51,1.19,.87,1.74,1.38,1.45,1.34,2.86,3,4.2,4.7-.11,.14-.14,.25-.14,.36,0,.22,.11,.43,.11,.62,0,.14-.04,.4-.29,.4-.76,0-.91-.61-1.41-.87-.4-.9-1.81-.69-1.92-2.24-.69-.47-2.21-2.17-2.35-2.17,0-.04,.04-.11,.04-.15,0-.07-.04-.33-.22-.33-.07,0-.18,.04-.22,.04s-2.46-2.06-2.46-2.57c0-.14-.43-.14-.54-.22-.11-.11-.25-.54-.36-.54-.07,0-.18,.04-.25,.04-.18,0-.22-.9-.8-.9-.07,0-.11,.04-.14,.04-.14-.51-.54-.76-1.05-.91-.14-.98-1.34-.94-1.56-1.88-.94-.04-2.39-1.34-2.42-1.56-.14-.33-.25-.54-.69-.54-.04,.07-.07,.18-.07,.22s1.38,2.03,2.5,2.75c-.04,.07-.04,.11-.04,.18,0,.51,.87,.69,.9,1.19s.9,.94,1.05,1.56c.54,1.01,1.45,1.7,1.74,2.97-.4,.25-.69,.58-1.05,.87-.8-.04-1.23-.69-1.7-.69-.62,0-2.13-1.45-2.28-1.59-.22-.14-.87-.8-1.74-1.01-.4-.8-1.74-.94-2.61-1.92-.98-.54-1.92-1.12-2.79-1.74-.07-.04-.15-.07-.18-.07-.22,0-.36,.22-.43,.22-.04,0-.07-.04-.07-.14-.15-.18-.33-.25-.54-.36-.47,.25-.58,.72-.58,1.16,0,.51,.14,.94,.14,1.52,.25,.22,.43,1.23,.8,1.95,.25,.83,1.05,1.52,1.45,2.46,.25,.58,.65,1.12,1.23,1.7,.33,.25,1.23,1.45,1.23,1.84,0,.29-.33,.69-.8,.69-1.05,0-1.81-1.48-2.46-2.24-.29-.22-.87-1.08-1.12-1.7-.87-2.06-2.21-4.31-2.21-6.84,0-1.12,.29-2.32,1.45-2.32,.76,0,1.19,.22,2.1,.22,.11,.51,.98,.29,1.05,.87,.04-.04,.11-.04,.14-.04,.65,0,1.16,.8,1.59,1.08,.58,.36,.83,0,1.74,1.05,.94,.25,1.38,1.05,2.24,1.38,.69,.62,2.21,1.92,2.61,1.92Z"/><path d="M40.5,255.04c.07,.14,.47,.47,.69,.87,.14,1.05,.9,1.48,1.19,2.42,.43,.58,1.08,.9,1.59,1.41,.14,.98,.69,1.59,.69,2.75-.43,.58-.9,1.81-1.92,1.77-.62,.29-1.3,.33-1.88,.43-.07,.04-.14,.22-.07,.51,.11,.51-.04,.04,.14,.54,.25,.62,.11,1.48,.07,1.48-.29,.04-1.38-.69-1.52-.87-.04-.07-.07-.22-.18-.51-.22-.58-.04-.22-.25-.76-.22-.58-.29-.65-.33-.65-1.41-.43-2.06-1.38-3.11-2.1-.22-.22-.72-1.12-1.05-1.01-.07-.43-.4-.29-.87-.72-1.01-1.23-1.88-2.61-2.61-4.16-.25-1.23-.07-2.97,.18-3.83,.76-.47,2.1-.36,3.29-.36,.4,.18,.87,.33,1.23,.54,.14,.07,.22,.43,.36,.51,.22,.15,.47,.07,.69,.18,.76,.43,1.59,.58,2.17,1.19,.4,.14,.98,.29,1.48,.36Zm-2.1,1.92c-.04-.43-.43-.51-.69-.69-.9-.72-2.03-1.23-2.79-1.92-.76,0-1.01-.51-1.92-.36v1.77c.04,.36,.76,1.63,.87,1.74,.14,.14,.07,.14,.18,.36,.33,.54,.94,.87,1.05,1.56,.4,.33,.83,.65,1.19,1.05,.4,.36,.76,.72,1.05,1.19,.43,.25,.43,.54,1.01,.54-.36-.58-.43-1.74-.47-2.46,.22-.25,.14-.76,.14-1.23,.29-.47,.72-.8,.87-1.38-.22-.04-.22-.25-.51-.18Zm3.47,4.34c-.43-.22-.58-.72-.69-1.23-.36-.11-.87-.98-1.23-.51,.29,.04,0,.25-.33,.18-.07,1.05,.15,2.5,.51,3.15,.69-.07,1.66,.14,2.1-.18,0-.22,.22-.98,.14-1.23-.22-.04-.22-.25-.51-.18Z"/><path d="M36.08,281.63c.07,0-1.88-1.63-2.13-2.17-.22-.47-.94-.83-.94-1.3-.29-.43-1.38-1.66-1.38-1.81,0-.22-.69-.87-.69-1.3,0-.07,.04-.18,.04-.22,0-.33-.62-1.66-.72-2.17,0-.98-.18-1.12-.18-1.56,.04-1.01,.4-1.99,.87-2.79,.65-.25,1.23-.54,2.1-.54,1.74,0,3.76,1.01,5.54,2.1,.36,.22,.94,.4,1.41,.69,2.32,1.41,4.7,2.97,6.95,4.52,.33,.18,.62,.43,1.05,.54,.22,.43,1.41,1.48,2.42,1.74,1.63,1.99,2.97,2.21,5.9,5.35,.9,.98,1.56,2.97,2.1,2.97,0,.43-.22,.58-.22,.98,0,.07,0,.15,.04,.25-.51,.14-.94,.36-1.59,.36-.94,0-3.08-.54-4.16-1.08-.33-.18-.43-.51-.87-.51-3.33-1.23-5.64-2.97-8.14-5.39-.76-.72-1.41-1.66-2.42-2.06-.43-.94-1.34-2.39-1.92-2.61,0-.33-.11-.33-.36-.36-.22-.8-.65-1.45-1.05-2.1-.58-.43-.69-1.38-1.56-1.56-.11-.76-.8-.94-.87-1.74-.58-.14-1.3-.36-2.03-.36-1.16,0-1.27,.8-1.27,1.52,0,2.86,1.92,5.46,2.93,6.95,1.12,1.63,2.1,2.97,3.11,3.91-.04,.11-2.1-.25-1.95-.25Zm19.17,2.32c-.98-.8-1.92-1.92-2.79-2.6-.51-.4-1.7-1.74-1.88-1.74-.58,0-.58-.51-1.23-.51-.58-1.27-1.81-1.59-2.1-1.59-.65-1.19-2.17-1.63-2.42-1.88-.11-.14,.04-.47-.18-.54-1.52-.22-1.48-.87-1.84-.87-.18,0-.11-.36-.29-.36-.14,0-1.16-.54-1.16-.8,0,0-1.09-.43-.94-.43-.36,0-1.85-1.01-2.1-1.3,0,1.3,3.18,4.16,3.76,5.25,0,.07-.04,.18-.04,.22,0,.4,1.66,1.7,2.1,2.13,1.41,1.41,3.04,2.61,4.52,3.98,.98,.25,1.85,.8,2.79,1.23-.11,.22,.11,.18,.25,.18,.47,0,1.88,.72,2.5,1.19,.11-.04,.22-.04,.33-.04,.54,0,.9,.33,1.27,.33,.33,0,.43-.29,.43-.54,0-.54-.62-.94-.98-1.3Z"/><path d="M33.33,287.92c.25-.07-.29-1.19-.51-1.23-.47-.87-.65-2.03-1.05-2.97-.4-.18-.07-.51-.18-.87-.04-.07-.33-.43-.36-.51-.15-.9,.04-1.84-.15-2.6,.47-.11,.43-.72,1.01-.69,.65-.14,1.27-.04,1.59,.11,.69,.33,2.17,1.23,2.6,1.81,.94,1.12,3.15,2.39,4.02,3.58,.4,.11,.54,.51,.69,.87,.51,.04,.51,.54,.87,.69,.22,.33,.47,.58,.72,.87,.15,.33,.69,.22,.51,.87,.07,.72-.8,.47-1.05,.87-1.09-.18-1.27-1.27-2.24-1.56-.33-.9-1.41-1.09-1.92-1.77-.36-.9-2.13-1.74-2.64-2.53-.76-.43-1.01-1.41-2.1-1.56-.47,.72,.14,1.81,.54,2.28,.11,1.3,.69,2.32,1.19,3.29,.51,.94,.91,1.81,1.45,2.75,.29,.72,.8,.72,1.16,1.34,.22,.76,.87,1.48,.94,2.39-1.12,.4-2.21-.25-3.04-1.88-.36-.25-.54-.83-.87-1.12-.54-.47-.43-2.03-1.19-2.42Zm20.33,7.27c-.69,.36-1.63,.47-2.61,.54-.61-.47-.29-1.7,0-2.28,1.48-.04,2.93-.04,2.61,1.74Z"/><path d="M38.18,319.5c-.58-.9-1.27-.94-1.67-1.66-.51-.65-.51-.54-.9-1.3-.69-.4-.69-1.16-1.16-1.81-.65-.9-1.48-2.46-1.45-2.53-.11-.43-.83-1.77-.98-1.95-.11-.8-.36-1.48-.54-2.32-.11-.43-.36-.47-.36-1.19-.51-.65-.58-2.21-.58-3.18s.07-1.63,1.45-1.63c1.63,0,2.75,.98,4.09,1.52,.11-.04,.14-.07,.14-.11,0-.18-.51-.51-.51-.65,0-.07-.43-.07-.43-.14,0-.29-.76-.51-.76-.98,0-.04,0-.11,.04-.14-.65-.43-.76-1.41-1.38-1.88-.33-.83-.83-1.52-1.23-2.28-.47-.65-.62-1.41-1.23-1.92-.22-1.05-.14-2.13-.54-3v-1.92c.54-.4,1.16-.9,1.66-.9,1.19,0,1.95,.43,3,.54,1.3,1.3,3.65,2.28,4.16,3.83,.65,.4,.9,1.19,1.59,1.56-.04,.07-.04,.15-.04,.22,0,.4,.4,.58,.54,.83,.18,.36,.11,.87,.51,1.05,.4,.9,.54,1.63,.87,2.24,.22,.4,.18,1.12,.54,1.41,.11,.8,.14,1.7,.33,2.42-.18,1.45-.58,2.79-1.19,3.8,2.03,1.88,4.38,3.58,6.66,5.21,1.3,.72,2.06,1.99,3.47,2.6,.54,.51,.9,1.19,1.74,1.41,.29,.18,.25,.69,.76,.69h.11c.04,.36,.51,.33,.51,.72v.14c.65,.25,1.19,.65,1.74,1.05,.65,.76,.94,1.85,1.92,2.24v.51c0,.33-.04,.58-.18,.72h-.11c-.18,0-.14,.18-.33,.18-1.3,0-1.41-1.16-2.86-1.23-.11-.4-.58-.47-.69-.87-1.05-.14-1.7-.8-2.42-1.23-.62-.4-1.81-.94-1.92-1.56-2.03-.4-2.89-1.95-4.52-2.79-.9-1.05-3.33-3.04-3.33-3.58,0-.07,0-.14,.04-.22-.83,0-.94-1.45-1.92-1.56-.65-1.23-2.71-2.03-2.71-2.93,0-.07,0-.14,.04-.22-.65-.51-1.45-.87-1.88-1.56-1.59-.11-2.13-1.23-3.65-1.38-.22,.11-.29,.36-.29,.62,0,.9,.62,1.23,.62,2.06v.25c.54,.9,.14,1.56,.58,2.42,.43,.9,.33,.87,.61,1.81,1.16,1.63,.83,1.12,1.59,2.71,.54,.8,.22,.76,.91,1.38,.33,1.05,.65,.87,.9,1.92,.62,.8,.98,1.52,1.66,2.1-.54,.43-.62,.04-1.01,.43Zm2.93-14.69c.33,0,.07-.83,.25-.83,.29,0,.25,.29,.25-.18v-.43c0-1.12-.22-2.03-.51-2.89,0-.04-.14-.04-.18-.14-.29-.91-.36-1.77-1.05-2.46-2.06-3.76-5.1-5.75-5.21-5.9-.72-.33-1.23-.87-2.32-.87-.43,0-.43,.22-.43,.47,0,.29,.11,.62,.11,.87,0,.15-.04,.29-.11,.4,.29,.58,.61,1.12,.69,1.92,.36,.54,.76,1.09,.87,1.92,1.48,1.81,2.21,4.38,3.98,5.9,0,.04-.04,.07-.04,.11,0,.51,.9,1.16,.72,1.16,.04,0,.11,0,.18-.04,.14,.58,1.38,2.06,1.95,2.06,.29,0,.83-.51,.83-1.05Zm11.18,12.52c-.33-.25-.72-.4-1.05-.69-.11-.11-.94-.98-.94-.87,0-.33-.98-.29-.98-.72v-.11s-.04-.07-.07-.07c-.54,0-1.19-.65-1.3-1.19-.83,0-1.01-.72-1.74-.87-.25-.25-.36-.65-.54-1.05-.11,.04-.18,.04-.25,.04-.43,0-.72-.76-1.27-.76-.07,0-.14,.07-.22,.22,.8,.83,1.66,1.84,2.46,2.42,.83,.62,2.35,2.28,2.46,2.28,.04,0,.15-.04,.22-.04,.11,0,.14,.33,.69,.33,.4,0,3.36,2.86,4.27,2.86,.07,0,.14,0,.18-.04-.69-.54-1.27-1.19-1.92-1.74Z"/><path d="M36.88,338.35c-.33-.62-1.23-1.3-1.52-1.88-.29-.62-.54-.47-.87-1.09-.33-.62-.8-1.08-1.12-1.7-.14-.33-.14-.72-.33-1.05-.22-.36-.4-.43-.36-.87-.61-.62-.43-1.74-1.16-2.24-.14-1.27-.07-2.13-.29-3.33,.36,0,.07-.72,.18-1.01,.43-.04,.25-.69,.69-.72,.04-.33,.76-.04,.69-.51,.07-.51-.43-.65-.51-1.05-.14-.47-.51-1.16-.87-1.74-.18-.25-.36-1.19-.72-1.74-.14-.25-.54-1.67-.51-2.24,0,.07,.36-.51,.18-.87,.76-.83,1.92-1.27,3.47-.87,.47,.43,1.16,.69,1.92,.87,.47,.54,1.19,.87,1.74,1.37,1.08,.87,1.92,2.03,2.93,2.97,.4,.62,.8,1.19,1.41,1.56,.04,.9,.69,1.16,1.01,1.74,.33,.69,.43,1.56,1.05,1.92,.22,1.59,1.01,2.6,1.23,4.16-.25,1.27-1.52,1.81-2.97,1.38-.33-.29-.72-.51-.87-1.01-.36,.07-.25-.36-.51-.36-.25-.04-.14-.43-.18-.69,.9-.65,1.3,.47,2.1,.51,.43-.87-.36-1.48-.18-2.6-.36-.51-.43-1.19-.69-1.74-.29-.51-.76-.8-.87-1.37-.58-.98-1.52-1.63-1.92-2.79-.69-.47-1.3-1.01-1.92-1.56-.14-.43-.62-.54-.87-.87s-.8-.36-.87-.87c-1.12-.29-1.81-.94-3.11-1.05-.62,1.05,.29,1.99,.33,2.97,.33,0,.22,.29,.36,.51,.11,.22,.22,.33,.33,.51,.18,.33,.18,1.08,.72,1.05-.04,.43-.04,.83,.18,1.05,.04,.4,.58,.33,.51,.87,.72,.15,1.12,.62,1.92,.69,.4,.36,.65,.87,1.37,.87,.47,1.41,2.28,1.45,2.1,3.47-.18,.43-.76,.43-1.05,.69-1.09,.11-1.12-.83-2.1-.87-.29-.54-.87-.87-1.38-1.19-.18-.47-.54-.72-.87-1.05-.25-.25-.36-.94-1.05-.69-.62-.18-.18,.76-.51,.87,.14,.29,.07,.72,.14,1.05,.18,.58,.04,1.01,.33,1.56,.25,.54,.43,1.19,.69,1.74,.47,1.05,.9,2.06,1.37,3.11,.51,.43,.76,.94,1.05,1.45,.4,.72,.9,1.34,1.38,2.17,0,0-1.27,.43-1.23,.54Z"/><path d="M34.93,335.2c.18,.25,1.45,.65,1.67,.9,.18,.22,1.41,1.16,1.81,1.12,.07,.22,.22,.4,.36,.54,.07,.07,.29,.11,.33,.14,.07,.07-.04,.29,0,.36,.29,.29,.65,.61,1.05,.69-.07,.36,.29,.54,.36,.69,.07,.15,.51,.4,.58,.54,.04,.07,.33,.11,.33,.18,.14,.29,.54,.69,.36,1.56-.33,.25-.69,.47-1.05,.69-1.41-.51-1.95-1.84-3.11-2.6-.51-.43-1.77-1.38-2.28-1.81-.65-.29-.8-1.09-1.74-1.05-.33,.36-.11,1.12,.18,1.38,.4,1.41,.83,2.75,1.56,3.83,.04,.33,.25,.76,.54,1.05,.14,.15,.22,.36,.33,.51,.14,.14,.22,.36,.36,.51,.25,.25,.58,.98,.87,1.41,.11,.18,.22,.33,.36,.51,.65,.9,1.84,1.74,2.75,2.61,.54,.22,.94,.58,1.23,1.05,.29,.43,1.01,.36,.87,1.23,.11,.65-.72,.43-.87,.87-1.81-.47-2.68-1.85-3.98-2.79-1.05-1.23-2.82-1.74-3.83-2.97-.8-.11-1.56-.29-1.74-1.05-.65,.14-.76-.29-1.38-.14-.36-.76-1.3-.91-2.1-1.23-.36-.18-.69-.36-1.05-.51-.58,.04-.25-.8-1.05-.54-.51,.47,.25,1.12,.36,1.56,.25,.51,.62,1.16,.76,1.74,.9,2.32,2.17,4.56,2.86,7.13,.22,.76,.18,1.74,.69,2.42-.22,1.38,.69,1.92,0,2.79-1.16,.14-1.41-.65-1.56-1.56-.15-1.3-.54-2.53-.87-3.65-.15-.62-.43-1.7-.87-2.42-.33-.11,.04-.98-.33-1.05-.62-1.45-1.48-2.89-2.06-4.34-.61-1.41-1.41-2.71-2.1-3.98-.54-.54-1.59-.62-2.1-1.23-.87-.22-1.56-.62-2.24-1.05-.83-.25-1.41-.76-2.24-1.01-.33-.72-1.38-.72-1.92-1.23-1.45-.76-2.82-1.59-4.16-2.42-.29-.14-.62-.25-.87-.54-.04,0-.18-.14-.18-.14-.25-.18-.98-.14-.87-.72-1.01,0-1.01-1.05-2.1-1.01-.18-.47-.62-.65-.69-1.23-.4-.11-.87-.14-1.23-.36-.69-.91-1.77-1.45-2.24-2.61-.33-.18-.62-.43-1.05-.51-.07-.98-.8-1.3-1.19-1.92-.25-1.23-.76-2.71-.18-3.8,1.12-.47,2.32-.8,3.98-.72,.9,.18,1.45,.65,2.42,.72,1.01,.87,2.53,1.19,3.47,2.06,.83,.11,1.12,.76,1.74,1.05,.61,.25,1.12,.65,1.41,1.23,.47,.14,.87,.4,1.38,.51,.29,1.12,1.56,1.23,2.1,2.1,.47,.4,.83,.8,1.38,1.19,.69,.51,1.19,1.56,2.1,2.1,.54,1.12,1.38,2.03,2.06,3.11,.25,.36,.51,.69,.72,1.05,.07,.14,.25,.4,.33,.51,.11,.18,.07,.51,.18,.72,.11,.15,.43,.18,.51,.33,.14,.22,.07,.47,.18,.69,.4,.76,.72,1.45,1.23,2.1,1.77,.83,3.55,1.66,5.39,2.42,.43,.07,.51,.54,1.01,.54,.04,.51,.83,.22,1.05,.51,.11,.43,.65,.4,1.05,.51,.14-.62-.47-.94-.69-1.38-.22-.4-.33-.94-.54-1.38-.04-.11-.15,0-.15-.18-.04-.14-.4-.87-.54-1.23-.15-.43-.29-.94-.51-1.38,.07-.36-.11-.47-.18-.69,0-1.27-.11-2.68,.36-3.47,1.23-.54,2.24,.22,3.22,.47Zm-12.45,3c-.36-.51-.58-1.16-1.05-1.59-.65-1.05-1.23-2.24-2.06-3.11-1.12-1.52-2.42-2.89-3.83-4.16-.29-.58-.94-.8-1.38-1.23-.36-.11-.47-.47-.69-.69-.25-.22-.62-.33-.72-.69-1.19-.51-2.21-1.3-3.29-1.92-1.12-.65-2.28-1.27-3.65-1.74-1.3-.22-2.68-.54-3.62,.18-.14,1.38,.69,1.85,.87,2.93,.98,.36,1.16,1.52,2.06,1.92,.11,.61,.83,.69,1.05,.87,.36,.29,.69,.76,1.05,1.05,.72,.58,1.52,1.16,2.42,1.56,.36,.69,1.12,.83,1.74,1.23,.58,.36,1.12,.83,1.74,1.19,.62,.4,1.27,.69,1.92,1.05,.61,.36,1.3,.94,2.06,1.05,.62,.72,1.85,.83,2.46,1.56,1.01,.36,1.95,.83,2.75,1.41,.14-.04,.36-.04,.36-.18-.04-.25-.25-.33-.18-.69Z"/></g></g></g></svg>